<?xml version="1.0" standalone="no"?>
<!DOCTYPE svg PUBLIC "-//W3C//DTD SVG 20010904//EN"
 "http://www.w3.org/TR/2001/REC-SVG-20010904/DTD/svg10.dtd">
<svg version="1.0" xmlns="http://www.w3.org/2000/svg"
 width="700.000000pt" height="700.000000pt" viewBox="0 0 700.000000 700.000000"
 preserveAspectRatio="xMidYMid meet">
<metadata>
Created by potrace 1.14, written by Peter Selinger 2001-2017
</metadata>
<g transform="translate(0.000000,700.000000) scale(0.100000,-0.100000)"
fill="#000000" stroke="none">
<path d="M1128 6414 c-2 -1 -21 -4 -43 -7 -191 -23 -396 -206 -478 -426 l-21
-56 -1 -2406 c-1 -1979 1 -2416 12 -2460 26 -105 81 -198 173 -290 96 -97 189
-150 299 -172 51 -11 534 -13 2460 -12 l2396 1 66 25 c71 27 141 65 175 96 12
10 37 32 56 49 85 75 159 202 182 315 10 49 12 562 11 2458 l-1 2396 -25 66
c-36 94 -71 150 -142 226 -87 93 -190 156 -312 190 -18 6 -4802 13 -4807 7z
m4699 -587 c10 -11 9 -4648 -1 -4655 -16 -10 -4647 -8 -4654 2 -3 5 -6 1053
-6 2329 -1 1771 2 2320 11 2325 15 9 4641 7 4650 -1z"/>
<path d="M3792 4376 l3 -291 873 -1 872 0 1 58 c0 32 0 132 0 223 0 91 0 196
0 233 l-1 69 -875 0 -875 0 2 -291z"/>
<path d="M1477 3792 c-15 -3 -17 -20 -18 -125 -1 -289 0 -449 4 -453 4 -4 281
-5 1395 -4 l352 0 0 290 0 290 -858 2 c-472 2 -866 2 -875 0z"/>
<path d="M3790 3500 l0 -290 113 0 c938 -2 1630 0 1634 3 3 4 6 428 4 550 l-1
27 -875 0 -875 0 0 -290z"/>
<path d="M1459 2831 c0 -96 0 -470 1 -487 0 -7 257 -11 875 -11 l875 0 0 292
0 291 -875 0 -875 0 -1 -85z"/>
<path d="M3795 2912 c-3 -3 -5 -134 -5 -292 l0 -287 875 0 c792 0 875 2 876
16 3 90 -2 555 -7 560 -7 7 -1732 10 -1739 3z"/>
<path d="M1477 2042 c-11 -2 -17 -13 -18 -30 0 -15 -1 -145 -2 -289 l-2 -263
30 -1 c39 -1 1650 -1 1693 0 l32 1 0 290 0 290 -22 1 c-81 2 -1698 3 -1711 1z"/>
<path d="M3794 2041 c-2 -2 -4 -134 -4 -293 l0 -288 43 -1 c217 -3 1699 0
1703 4 7 7 7 567 0 574 -6 7 -1735 10 -1742 4z"/>
</g>
</svg>
