<?xml version="1.0" encoding="UTF-8" standalone="no"?>
<svg
   viewBox="0 0 24 24"
   version="1.1"
   id="svg12"
   sodipodi:docname="level-meter-high.svg"
   inkscape:version="1.2.2 (732a01da63, 2022-12-09)"
   xmlns:inkscape="http://www.inkscape.org/namespaces/inkscape"
   xmlns:sodipodi="http://sodipodi.sourceforge.net/DTD/sodipodi-0.dtd"
   xmlns="http://www.w3.org/2000/svg"
   xmlns:svg="http://www.w3.org/2000/svg">
  <defs
     id="defs16" />
  <sodipodi:namedview
     id="namedview14"
     pagecolor="#ffffff"
     bordercolor="#000000"
     borderopacity="0.25"
     inkscape:showpageshadow="2"
     inkscape:pageopacity="0.0"
     inkscape:pagecheckerboard="0"
     inkscape:deskcolor="#d1d1d1"
     showgrid="true"
     inkscape:lockguides="true"
     inkscape:zoom="19.386511"
     inkscape:cx="5.1066435"
     inkscape:cy="9.9553757"
     inkscape:window-width="1920"
     inkscape:window-height="1137"
     inkscape:window-x="1912"
     inkscape:window-y="-8"
     inkscape:window-maximized="1"
     inkscape:current-layer="svg12">
    <inkscape:grid
       type="xygrid"
       id="grid246" />
  </sodipodi:namedview>
  <path
     id="path10"
     d="M 20,20 H 4 V 4 H 20 M 12,2 H 11 9 7 5 4 C 3,2 2,3 2,4 v 16 c 0,1 1,2 2,2 h 16 c 1,0 2,-1 2,-2 V 4 C 22,3 21,2 20,2 M 5,5 v 2 h 6 V 5 m 2,0 v 2 h 6 V 5 M 5,8 v 2 h 6 V 8 m 2,0 v 2 h 6 V 8 M 5,11 v 2 h 6 v -2 m 2,0 v 2 h 6 V 11 M 5,14 v 2 h 6 v -2 m 2,0 v 2 h 6 V 14 M 5,17 v 2 h 6 v -2 m 2,0 v 2 h 6 v -2" />
</svg>
